<?xml version="1.0" encoding="UTF-8" standalone="no"?>
<svg
   viewBox="0 0 24 24"
   width="24"
   height="24"
   version="1.1"
   id="svg19"
   sodipodi:docname="Lib_button_save.svg"
   inkscape:version="1.1.2 (b8e25be833, 2022-02-05)"
   xmlns:inkscape="http://www.inkscape.org/namespaces/inkscape"
   xmlns:sodipodi="http://sodipodi.sourceforge.net/DTD/sodipodi-0.dtd"
   xmlns="http://www.w3.org/2000/svg"
   xmlns:svg="http://www.w3.org/2000/svg">
  <defs
     id="defs23" />
  <sodipodi:namedview
     id="namedview21"
     pagecolor="#ffffff"
     bordercolor="#666666"
     borderopacity="1.0"
     inkscape:pageshadow="2"
     inkscape:pageopacity="0.0"
     inkscape:pagecheckerboard="0"
     showgrid="false"
     inkscape:zoom="4.2604167"
     inkscape:cx="9.0366748"
     inkscape:cy="28.635697"
     inkscape:window-width="1920"
     inkscape:window-height="1027"
     inkscape:window-x="-8"
     inkscape:window-y="-8"
     inkscape:window-maximized="1"
     inkscape:current-layer="svg19" />
  <path
     fill-rule="evenodd"
     d="M5 3.75C5 2.784 5.784 2 6.75 2h10.5c.966 0 1.75.784 1.75 1.75v17.5a.75.75 0 01-1.218.586L12 17.21l-5.781 4.625A.75.75 0 015 21.25V3.75zm1.75-.25a.25.25 0 00-.25.25v15.94l5.031-4.026a.75.75 0 01.938 0L17.5 19.69V3.75a.25.25 0 00-.25-.25H6.75z"
     id="path17" />
  <rect
     style="fill:#000000;fill-rule:evenodd"
     id="rect127"
     width="1"
     height="8"
     x="11.530562"
     y="4.9584351" />
  <rect
     style="fill:#000000"
     id="rect247"
     width="8"
     height="1"
     x="8.0097799"
     y="8.4792185" />
</svg>
